<?xml version="1.0" encoding="utf-8"?>
<!-- Generator: Adobe Illustrator 15.1.0, SVG Export Plug-In . SVG Version: 6.00 Build 0)  -->
<!DOCTYPE svg PUBLIC "-//W3C//DTD SVG 1.1//EN" "http://www.w3.org/Graphics/SVG/1.1/DTD/svg11.dtd">
<svg version="1.1" id="Layer_1" xmlns="http://www.w3.org/2000/svg" xmlns:xlink="http://www.w3.org/1999/xlink" x="0px" y="0px"
	 width="100px" height="100px" viewBox="0 0 100 100" enable-background="new 0 0 100 100" xml:space="preserve">
<path fill-rule="evenodd" clip-rule="evenodd" fill="#1D1D1B" d="M25.256,21.206c0.1,0.233,0.066,0.483-0.1,0.75
	c-0.033,0.033-0.05,0.066-0.05,0.1c0,0.633,0.2,1.233,0.6,1.8l0.1,0.1c0.1,0.1,0.283,0.3,0.55,0.6c0.167,0.167,0.35,0.35,0.55,0.55
	c0.867,0.933,0.933,2.017,0.2,3.25h-0.05c-0.4,1.033-0.033,1.816,1.1,2.35c0.467,0.267,0.883,0.533,1.25,0.8
	c0.367,0.867,0.233,1.7-0.4,2.5c-0.534-1.467-1.417-2.517-2.65-3.15c-0.966-0.867-1.15-1.833-0.55-2.9c0.5-0.8,0.5-1.617,0-2.45
	c-0.033-0.067-0.067-0.117-0.1-0.15c0-0.1-0.05-0.15-0.15-0.15c-0.067,0-0.117,0-0.15,0c-0.067,0.033-0.1,0.083-0.1,0.15
	c-0.033,0.066-0.033,0.133,0,0.2c0.033,0.067,0.067,0.15,0.1,0.25c0.4,0.633,0.4,1.267,0,1.9c-0.767,1.267-0.55,2.45,0.65,3.55
	l0.05,0.05c1.167,0.6,2.017,1.633,2.55,3.1c-0.3,0.3-0.55,0.583-0.75,0.85c-0.267-1.033-0.617-1.567-1.05-1.6
	c-0.533-0.2-1,0.15-1.4,1.05c-0.1-0.1-0.217-0.184-0.35-0.25c-0.333-0.267-0.617-0.6-0.85-1c-0.367-0.633-0.6-1.417-0.7-2.35
	c-0.067-0.934,0.167-1.967,0.7-3.1c0.133-0.267,0.25-0.517,0.35-0.75c0.367-0.533,0.434-1.033,0.2-1.5v0.05
	c-0.067-0.2-0.167-0.4-0.3-0.6h-0.05c-0.066-0.034-0.133-0.1-0.2-0.2c-0.034,0-0.05-0.017-0.05-0.05
	c-0.433-0.667-0.45-1.25-0.05-1.75c0.033-0.1,0.066-0.167,0.1-0.2c0.3-0.5,0.3-1,0-1.5c-0.034-0.033-0.05-0.067-0.05-0.1
	c-0.267-0.467-0.333-0.933-0.2-1.4c0.066,0.133,0.133,0.283,0.2,0.45l0.05,0.05h0.05C24.806,20.739,25.123,20.972,25.256,21.206z
	 M31.056,33.255c0.4,0.7,0.683,1.55,0.85,2.55c0.066,0.133,0.1,0.284,0.1,0.45c-0.067-0.1-0.133-0.183-0.2-0.25
	c-0.3-0.267-0.683-0.333-1.15-0.2c-0.667,0.2-1.184,0.617-1.55,1.25h0.05c-0.133,0.2-0.233,0.434-0.3,0.7
	c-0.333,1-0.3,2.017,0.1,3.05c0.333,0.9,0.9,1.617,1.7,2.15c0,0.033,0.033,0.066,0.1,0.1l0.05,0.05c0.1,0.033,0.233,0.083,0.4,0.15
	l-0.2,0.7c-0.034,0-0.05,0.017-0.05,0.05c-0.1-0.033-0.2-0.067-0.3-0.1c-0.033-0.033-0.067-0.05-0.1-0.05l-0.1-0.05
	c-0.066-0.033-0.117-0.05-0.15-0.05c-1-0.433-1.767-1.167-2.3-2.2c-0.667-1.233-0.8-2.65-0.4-4.25c0-0.033,0-0.066,0-0.1
	c-0.033-0.333,0.083-0.717,0.35-1.15l0.05-0.05c0-0.033,0.017-0.067,0.05-0.1c0.233-0.4,0.567-0.816,1-1.25h0.05v-0.1
	c0.767-0.8,1.083-1.633,0.95-2.5C30.456,32.422,30.789,32.822,31.056,33.255z M32.306,37.555h0.15
	c-0.066,0.034-0.117,0.083-0.15,0.15C32.306,37.639,32.306,37.589,32.306,37.555z M31.855,37.555c-0.2,0.2-0.4,0.317-0.6,0.35
	c-0.233-0.033-0.45-0.167-0.65-0.4c-0.033-0.033-0.083-0.05-0.15-0.05h-0.1c-0.1,0.033-0.15,0.066-0.15,0.1
	c-0.767,1.6-0.517,3.184,0.75,4.75c0.033,0.034,0.083,0.05,0.15,0.05c0,0.1,0.017,0.233,0.05,0.4c-0.033-0.033-0.067-0.067-0.1-0.1
	l-0.1-0.1c-0.733-0.466-1.25-1.117-1.55-1.95c-0.333-0.9-0.367-1.8-0.1-2.7c0.067-0.267,0.15-0.483,0.25-0.65
	c0.3-0.5,0.717-0.833,1.25-1c0.3-0.1,0.517-0.067,0.65,0.1c0.2,0.2,0.333,0.533,0.4,1c0,0.033,0,0.066,0,0.1V37.555z M32.906,37.706
	c-0.1,1.4,0.333,2.466,1.3,3.2c1.4,1.067,2.567,2.267,3.5,3.6c0,0.033,0,0.083,0,0.15h0.05c0,0.033,0.017,0.05,0.05,0.05
	c0.4,0.633,0.75,1.267,1.05,1.9v0.05c0.034,0.067,0.067,0.15,0.1,0.25v0.05c0.267,0.6,0.467,1.216,0.6,1.85
	c0.367,1.6,0.283,3.15-0.25,4.65c-0.033,0.033-0.033,0.083,0,0.15c0.033,0.066,0.083,0.117,0.15,0.15c0.033,0,0.067,0,0.1,0
	c-0.567,0.633-1.3,1.2-2.2,1.7c0.367-0.767,0.667-1.534,0.9-2.3c0.3-1.2,0.433-2.367,0.4-3.5c-0.033-0.9-0.167-1.717-0.4-2.45
	c-0.233-0.8-0.567-1.517-1-2.15l-0.05-0.05c-0.833-1.233-1.7-1.9-2.6-2c-0.8-0.1-1.333,0.25-1.6,1.05
	c-0.067,0.034-0.1,0.117-0.1,0.25c-0.033,0.1-0.05,0.217-0.05,0.35c0,0.033,0.017,0.067,0.05,0.1c0.066,0.067,0.133,0.1,0.2,0.1
	c0.034,0,0.083-0.033,0.15-0.1c0.066-0.033,0.1-0.067,0.1-0.1c0-0.1,0.017-0.167,0.05-0.2c0-0.034,0-0.067,0-0.1s0-0.067,0-0.1
	v-0.05c0.2-0.534,0.583-0.784,1.15-0.75c0.767,0.133,1.517,0.716,2.25,1.75c0,0.033,0,0.066,0,0.1c0.4,0.6,0.733,1.267,1,2
	c0.2,0.733,0.317,1.534,0.35,2.4c0.066,1.066-0.067,2.183-0.4,3.35v-0.05c-0.233,0.933-0.6,1.85-1.1,2.75l-0.05,0.05h-0.05
	l-0.1-0.05v-0.05c1.2-2.4,1.333-4.95,0.4-7.65c-0.4-1.2-0.933-2.117-1.6-2.75c-0.7-0.7-1.284-0.816-1.75-0.35
	c-0.067,0.033-0.1,0.083-0.1,0.15v0.05c-0.133-0.066-0.267-0.133-0.4-0.2c-0.434-0.2-0.917-0.333-1.45-0.4h-0.35l0.05-0.05
	c0.033-0.033,0.066-0.083,0.1-0.15c0-0.033-0.017-0.083-0.05-0.15c0.067-0.067,0.117-0.117,0.15-0.15l0.2-0.8
	c0-0.067,0-0.117,0-0.15c-0.033-0.333-0.05-0.65-0.05-0.95c-0.033-0.566,0.017-1.133,0.15-1.7c0.167-0.934,0.483-1.733,0.95-2.4
	c0.033-0.033,0.05-0.066,0.05-0.1c0.033-0.067,0.066-0.133,0.1-0.2L32.906,37.706z M31.256,38.405c0.3,0,0.617-0.15,0.95-0.45
	c-0.433,0.7-0.75,1.5-0.95,2.4c-0.067,0.467-0.117,0.933-0.15,1.4c-0.9-1.2-1.1-2.417-0.6-3.65
	C30.739,38.305,30.989,38.405,31.256,38.405z M26.605,37.305c0-0.066,0-0.117,0-0.15c-0.066-0.9-0.316-1.617-0.75-2.15
	c0.3-0.667,0.583-0.983,0.85-0.95c0.367,0.133,0.65,0.733,0.85,1.8c-0.3,0.5-0.433,0.95-0.4,1.35c-0.4,1.733-0.267,3.267,0.4,4.6
	c0.233,0.467,0.55,0.883,0.95,1.25c-1.4-0.867-2.1-2.2-2.1-4c0-0.433,0.05-0.883,0.15-1.35c0-0.133,0.017-0.25,0.05-0.35V37.305z
	 M26.056,37.605c-0.067,0.533-0.1,1.017-0.1,1.45c0,2.833,1.533,4.617,4.6,5.35c0.167,0.033,0.35,0.067,0.55,0.1l0.05,0.05
	l-0.25-0.05c-0.133,0-0.233,0-0.3,0h-0.05c-3.667-0.033-5.75-1.183-6.25-3.45v-0.05l-0.05-0.05v-0.05c0-0.033,0-0.083,0-0.15v-0.05
	c-0.067-0.467-0.083-0.967-0.05-1.5c0-0.034,0.017-0.067,0.05-0.1c0.167-0.5,0.35-1.033,0.55-1.6v-0.05L26.056,37.605z
	 M23.855,45.005c-0.233-1.033-0.25-2.3-0.05-3.8v-0.05l0.05-0.05v0.05c0.067,0.434,0.2,0.85,0.4,1.25c0.933,1.7,3.033,2.567,6.3,2.6
	h0.05c0.067,0,0.15,0,0.25,0l0.65,0.05c0.466,0.034,0.9,0.133,1.3,0.3c0.2,0.1,0.383,0.2,0.55,0.3c0.967,0.6,1.7,1.684,2.2,3.25
	c0.667,2.233,0.483,4.5-0.55,6.8c-0.167,0.4-0.383,0.816-0.65,1.25c-0.4,0.267-0.75,0.566-1.05,0.9
	c-0.133,0.033-0.233,0.117-0.3,0.25v0.05c-0.067,0-0.117,0.017-0.15,0.05c0.034-0.1,0.05-0.2,0.05-0.3
	c0.033-0.267,0.05-0.517,0.05-0.75c0.033-0.8-0.066-1.517-0.3-2.15c-0.7-1.833-2.35-3-4.95-3.5h0.05
	c-0.633-0.267-1.133-0.567-1.5-0.9c-0.133-0.133-0.25-0.267-0.35-0.4c-0.033-0.034-0.067-0.083-0.1-0.15h-0.05
	c-0.233-0.433-0.483-0.917-0.75-1.45l-0.05-0.05l0.25-0.25c0.367,0.333,0.75,0.633,1.15,0.9c0.1,0.133,0.217,0.216,0.35,0.25
	c0.567,0.267,1.233,0.45,2,0.55c0.033,0,0.067,0,0.1,0c0.233,0.033,0.483,0.05,0.75,0.05c0.1,0,0.15-0.017,0.15-0.05
	c0.067-0.067,0.1-0.133,0.1-0.2c0-0.066-0.033-0.117-0.1-0.15c0-0.066-0.05-0.1-0.15-0.1c-0.233,0-0.45-0.017-0.65-0.05h-0.2
	c-0.667-0.067-1.25-0.217-1.75-0.45c-0.133-0.066-0.25-0.15-0.35-0.25c-0.367-0.233-0.716-0.517-1.05-0.85l-0.15-0.1
	c-0.467-0.6-0.85-1.2-1.15-1.8C24.089,45.722,23.956,45.372,23.855,45.005z M29.156,48.355c0.267-0.567,0.683-0.867,1.25-0.9
	c0.566-0.034,1.133,0.2,1.7,0.7c1.4,1.4,1.633,3.567,0.7,6.5c0,0.067,0,0.133,0,0.2c0.033,0.033,0.083,0.066,0.15,0.1
	c0.1,0.033,0.167,0.033,0.2,0c0.033-0.034,0.083-0.083,0.15-0.15c1-3.167,0.717-5.483-0.85-6.95c-0.633-0.633-1.316-0.934-2.05-0.9
	c-0.733,0.033-1.283,0.433-1.65,1.2c-0.034,0.067-0.034,0.133,0,0.2c0.033,0.033,0.066,0.066,0.1,0.1c0.067,0.033,0.15,0.033,0.25,0
	L29.156,48.355z M25.506,50.505c0.133,0.133,0.267,0.283,0.4,0.45c0.433,0.367,0.983,0.683,1.65,0.95c0,0.033,0.017,0.05,0.05,0.05
	c2.434,0.5,3.967,1.566,4.6,3.2c0.2,0.567,0.3,1.233,0.3,2c0,0.233-0.017,0.467-0.05,0.7c0,0.1-0.017,0.217-0.05,0.35
	c-0.033,0.2-0.083,0.417-0.15,0.65l-0.05,0.1v-0.05c-0.367-0.566-0.767-1.017-1.2-1.35c-0.367-0.3-1-0.683-1.9-1.15
	c-0.033,0-0.083,0-0.15,0c-0.066,0-0.117,0.017-0.15,0.05c-0.033,0.066-0.05,0.133-0.05,0.2c-0.5,3.1-0.784,5.417-0.85,6.95
	c-0.033,1.633,0.117,3.1,0.45,4.4c0.133,0.6,0.317,1.167,0.55,1.7c0.133,0.3,0.283,0.617,0.45,0.95c0.367,0.7,0.8,1.383,1.3,2.05
	c0.433,0.6,0.95,1.133,1.55,1.6c0.2,0.167,0.434,0.35,0.7,0.55h0.05c1.434,1.066,3.017,1.733,4.75,2c0.2,0.033,0.434,0.066,0.7,0.1
	c0.2,0,0.417,0.017,0.65,0.05c0.067,0,0.133,0,0.2,0h0.05c0.067,0,0.117,0,0.15,0c0.4,0.267,0.85,0.517,1.35,0.75
	c-0.433-0.033-0.85-0.067-1.25-0.1c-0.033,0-0.067,0-0.1,0h-0.05c-0.6-0.033-1.167-0.117-1.7-0.25h-0.05
	c-1.934-0.3-3.65-0.867-5.15-1.7l0.05,0.05c-0.036-0.033-0.069-0.05-0.1-0.05c-0.033-0.034-0.066-0.067-0.1-0.1h-0.05
	c-0.233-0.133-0.45-0.283-0.65-0.45c-1.767-1.167-3.15-2.7-4.15-4.6c0-0.066-0.017-0.1-0.05-0.1l-0.05-0.1
	c-0.3-0.667-0.567-1.35-0.8-2.05c-1.267-3.9-1.2-8.117,0.2-12.65v0.05c0.367-0.9,0.067-1.784-0.9-2.65
	c-0.733-0.7-0.917-1.417-0.55-2.15c0.034-0.066,0.05-0.15,0.05-0.25h-0.05L25.506,50.505z M30.756,57.905
	c0.367,0.333,0.716,0.75,1.05,1.25c0.033,0.067,0.067,0.117,0.1,0.15h0.05l-0.15,0.2c-0.033,0-0.05,0.017-0.05,0.05
	c-1.767,4.1-2.05,7.517-0.85,10.25c0.233,0.633,0.55,1.2,0.95,1.7c0.434,0.567,0.917,1.067,1.45,1.5c1.033,0.9,2.333,1.65,3.9,2.25
	c0.333,0.167,0.717,0.317,1.15,0.45c0.167,0.267,0.35,0.533,0.55,0.8c-0.167-0.033-0.333-0.05-0.5-0.05
	c-0.233-0.034-0.434-0.05-0.6-0.05c-1.7-0.267-3.233-0.9-4.6-1.9c0-0.033-0.017-0.05-0.05-0.05c-0.233-0.167-0.45-0.333-0.65-0.5
	v-0.05c-0.567-0.433-1.067-0.933-1.5-1.5c-0.434-0.6-0.85-1.25-1.25-1.95c-0.167-0.333-0.3-0.65-0.4-0.95
	c-0.2-0.5-0.383-1.033-0.55-1.6c-0.3-1.267-0.417-2.7-0.35-4.3c0.033-1.467,0.267-3.667,0.7-6.6
	C29.889,57.372,30.422,57.672,30.756,57.905z M33.355,58.505c0.034-0.133,0.117-0.233,0.25-0.3c0.333-0.333,0.684-0.617,1.05-0.85
	c0.4-0.267,0.8-0.5,1.2-0.7c0.034,0,0.067,0,0.1,0v-0.05h0.05c0.033,0,0.066,0,0.1,0l0.05-0.05c0-0.033,0.033-0.05,0.1-0.05
	c0.1-0.033,0.183-0.067,0.25-0.1v-0.05c0.133-0.033,0.267-0.067,0.4-0.1c0.033-0.033,0.05-0.067,0.05-0.1
	c1.333-0.6,2.35-1.333,3.05-2.2c0-0.034,0.017-0.067,0.05-0.1c0.933-1.167,1.317-2.583,1.15-4.25c1.767,2.633,2.85,5.083,3.25,7.35
	c0.3,2.066,0.033,3.8-0.8,5.2c-0.733,1.133-1.684,1.767-2.85,1.9c-1.067,0.1-1.867-0.367-2.4-1.4c-0.233-0.8-0.217-1.35,0.05-1.65
	c0.033-0.033,0.067-0.067,0.1-0.1l0.55,0.15c-0.167,0.5-0.1,1,0.2,1.5c0,0.034,0.05,0.067,0.15,0.1c0.833,0.267,1.483,0.1,1.95-0.5
	c0.3-0.333,0.45-0.717,0.45-1.15c0.034-0.367-0.017-0.85-0.15-1.45l-0.05-0.05c-0.333-0.767-0.767-1.2-1.3-1.3
	c-0.333-0.133-0.883-0.133-1.65,0c-0.533,0.033-1.05,0.183-1.55,0.45c-0.833,0.367-1.567,1-2.2,1.9
	c-0.167,0.167-0.316,0.35-0.45,0.55c-0.5,0.767-0.867,1.566-1.1,2.4v-0.05c-0.333,1.133-0.417,2.383-0.25,3.75
	c0.267,1.966,1.517,3.883,3.75,5.75c0.267,0.2,0.533,0.417,0.8,0.65c0,0.066,0.017,0.167,0.05,0.3l-0.35,0.95
	c-1.567-0.633-2.833-1.367-3.8-2.2c-0.533-0.433-0.983-0.9-1.35-1.4c-0.367-0.533-0.684-1.083-0.95-1.65
	c-1.1-2.633-0.8-5.917,0.9-9.85l0.45-0.6h0.05c0.1-0.2,0.233-0.35,0.4-0.45v-0.05c0.067-0.1,0.133-0.15,0.2-0.15H33.355z
	 M34.956,45.655c0.6,0.6,1.083,1.434,1.45,2.5c0.867,2.633,0.717,5.1-0.45,7.4v0.05c-0.033,0.066-0.066,0.15-0.1,0.25
	c-0.033,0.066-0.066,0.117-0.1,0.15c-0.034,0-0.05,0.033-0.05,0.1v0.05l0.05-0.05c0.033-0.033,0.066-0.05,0.1-0.05l-0.05,0.05
	c-0.031,0-0.064,0.017-0.1,0.05c-0.033,0-0.05,0.017-0.05,0.05c-0.033,0-0.05,0.017-0.05,0.05c-0.133,0.033-0.267,0.1-0.4,0.2
	c0.067-0.2,0.15-0.383,0.25-0.55c1.1-2.433,1.267-4.816,0.5-7.15c-0.467-1.6-1.217-2.733-2.25-3.4c0.033-0.033,0.067-0.05,0.1-0.05
	C34.105,45.105,34.489,45.222,34.956,45.655z M38.806,58.655c0.7-0.1,1.167-0.1,1.4,0l0.05,0.05c0.367,0.066,0.683,0.4,0.95,1
	c0.133,0.533,0.2,0.966,0.2,1.3c0,0.3-0.1,0.583-0.3,0.85c-0.4,0.4-0.883,0.517-1.45,0.35c-0.167-0.333-0.2-0.65-0.1-0.95
	c0.033-0.167,0.083-0.3,0.15-0.4c0.033-0.067,0.05-0.117,0.05-0.15c-0.034-0.067-0.083-0.117-0.15-0.15l-0.05-0.1
	c0.033,0,0.067-0.017,0.1-0.05c0.066,0,0.117-0.033,0.15-0.1c0.033-0.066,0.017-0.133-0.05-0.2c-0.034-0.033-0.083-0.067-0.15-0.1
	c-0.466-0.167-0.933-0.2-1.4-0.1c-0.1,0-0.2,0.033-0.3,0.1c-0.5,0.1-0.967,0.333-1.4,0.7c-0.233,0.2-0.434,0.417-0.6,0.65
	c-0.533,0.667-0.917,1.517-1.15,2.55c-0.333,1.434-0.267,2.833,0.2,4.2c0.4,1.2,1.083,2.233,2.05,3.1c0.233,0.2,0.466,0.4,0.7,0.6
	c-0.033,0.367-0.05,0.75-0.05,1.15c-0.167-0.167-0.317-0.3-0.45-0.4h-0.05c-2.1-1.733-3.267-3.55-3.5-5.45
	c-0.167-1.267-0.1-2.434,0.2-3.5c0.233-0.8,0.583-1.533,1.05-2.2c0.133-0.233,0.267-0.417,0.4-0.55v-0.05c0.6-0.8,1.3-1.367,2.1-1.7
	c0.4-0.233,0.85-0.383,1.35-0.45H38.806z M39.906,53.956l-0.05,0.05v-0.05H39.906z M53.556,70.456
	c-1.134,1.267-2.417,3.466-3.85,6.6c-0.2,0.4-0.45,0.75-0.75,1.05c-0.066,0-0.117,0.05-0.15,0.15c-1.267,1.333-2.883,1.9-4.85,1.7
	c0.633-0.333,1.233-0.883,1.8-1.65c0.066-0.033,0.1-0.083,0.1-0.15v-0.05c0-0.067-0.033-0.1-0.1-0.1
	c-0.034-0.067-0.083-0.1-0.15-0.1c-0.933,0-1.75-0.033-2.45-0.1c-0.133-0.033-0.233-0.05-0.3-0.05c-1.333-0.2-2.367-0.583-3.1-1.15
	h-0.05v-0.05h-0.05c-0.067-0.066-0.133-0.133-0.2-0.2c-0.066-0.067-0.133-0.133-0.2-0.2c-0.2-0.233-0.383-0.5-0.55-0.8
	c-0.267-0.567-0.433-1.217-0.5-1.95c-0.1-0.533-0.1-1.1,0-1.7c0-0.067-0.017-0.133-0.05-0.2c-0.067-0.067-0.117-0.1-0.15-0.1
	c0-0.066,0-0.15,0-0.25c0.066-0.467,0.167-0.983,0.3-1.55c0.033-0.133-0.05-0.3-0.25-0.5c-0.267-0.3-0.5-0.583-0.7-0.85
	c0.4,0,0.767,0.067,1.1,0.2c0.367,0.167,0.6,0.433,0.7,0.8c0.5,2.2,1.783,3.583,3.85,4.15c1.7,0.5,3.417,0.35,5.15-0.45
	c0.267-0.133,0.55-0.284,0.85-0.45c0.033-0.067,0.066-0.117,0.1-0.15c0.067,0,0.1,0.033,0.1,0.1c0.033,0.066,0.033,0.133,0,0.2
	c2.367-3.967,4.783-6.3,7.25-7c3.733-1.033,7.351-0.9,10.851,0.4c2.833,1.034,5.833,2.917,9,5.65c0.033,0.066,0.083,0.133,0.149,0.2
	l-0.6,0.65h-0.05c-4.101-2.633-7.8-4.3-11.101-5c-0.033-0.033-0.066-0.05-0.1-0.05h-0.1c-0.601-0.133-1.2-0.233-1.801-0.3
	c-3.733-0.4-6.717,0.6-8.949,3c-0.067,0.066-0.117,0.15-0.15,0.25H53.556z M37.706,71.505h0.05c-0.033,0.065-0.049,0.115-0.05,0.15
	C37.706,71.62,37.706,71.57,37.706,71.505z M50.155,77.255c1.4-3.1,2.667-5.267,3.8-6.5c0.033-0.067,0.067-0.117,0.101-0.15
	l0.05-0.05c2.1-2.3,4.95-3.267,8.55-2.9c0.601,0.067,1.2,0.167,1.8,0.3l-0.25,1.4h-0.05c-2.033-0.2-3.767,0.3-5.2,1.5
	c-0.866,0.7-1.866,2-3,3.9c-1.033,1.767-1.883,2.9-2.55,3.4c-1.033,0.767-2.333,0.85-3.899,0.25c-0.034-0.033-0.067-0.05-0.1-0.05
	c0.233-0.3,0.483-0.633,0.75-1C50.155,77.322,50.155,77.289,50.155,77.255z"/>
</svg>
